<svg width="234" height="234" viewBox="0 0 234 234" fill="none" xmlns="http://www.w3.org/2000/svg">
<g filter="url(#filter0_d_243_57)">
<rect x="4" width="226" height="226" rx="13" fill="white"/>
</g>
<path fill-rule="evenodd" clip-rule="evenodd" d="M46.0476 133.284C43.5933 139.197 42.2221 145.505 42 151.906C42.3387 155.854 43.6811 159.649 45.899 162.928C50.0724 167.774 55.0912 171.816 60.7096 174.857L96.9966 199.086C101.462 202.65 106.482 205.451 111.857 207.375C115.346 208.208 118.982 208.208 122.471 207.375C127.881 205.474 132.942 202.693 137.451 199.143L174.128 174.9C179.803 171.85 184.879 167.791 189.108 162.921C191.342 159.624 192.683 155.801 193 151.828C192.759 145.375 191.352 139.02 188.846 133.071L156.77 31.8275C156.054 28.5486 154.76 25.4243 152.948 22.6016C151.629 20.9942 149.925 19.7488 147.995 18.9822C144.77 18.1054 141.416 17.8122 138.088 18.1164H96.3243C92.9958 17.813 89.6399 18.1135 86.4176 19.0035C84.483 19.7685 82.7772 21.0198 81.4642 22.6371C79.661 25.4599 78.3787 28.585 77.6784 31.863L46.0476 133.284ZM139.737 39.6057C141.229 41.9846 142.286 44.6114 142.858 47.3625L170.398 138.089C160.054 132.708 148.951 128.943 137.473 126.925L119.577 66.1763C119.467 65.8175 119.273 65.4903 119.011 65.2223C118.749 64.9542 118.426 64.753 118.071 64.6355C117.715 64.5181 117.337 64.4878 116.967 64.5472C116.598 64.6066 116.248 64.7539 115.947 64.9769C115.543 65.2734 115.247 65.6948 115.105 66.1763L97.4141 126.904C85.8818 128.917 74.7268 132.697 64.3397 138.11L91.9937 47.3838C92.5599 44.6276 93.6196 41.997 95.1214 39.6199C96.2167 38.2717 97.6331 37.2222 99.2397 36.5682C101.947 35.8344 104.763 35.5941 107.554 35.8585H127.318C130.112 35.5938 132.931 35.8342 135.64 36.5682C137.251 37.2241 138.671 38.2789 139.765 39.6341L139.737 39.6057ZM118.416 148.989C126.933 149.484 135.378 147.185 142.476 142.439C143.282 144.986 143.568 147.671 143.317 150.331C143.065 152.992 142.281 155.575 141.011 157.924C138.4 162.375 134.611 166.013 130.064 168.435C125.294 171.472 121.19 174.112 121.19 181.117C121.184 183.364 121.69 185.582 122.669 187.603C119.453 186.264 116.705 183.998 114.771 181.093C112.838 178.188 111.807 174.773 111.807 171.281V170.848C111.807 166.001 111.807 160.032 105 160.032C104.051 160.032 103.111 160.217 102.233 160.579C100.466 161.312 99.0617 162.718 98.3269 164.489C97.9621 165.369 97.7722 166.311 97.7679 167.264C93.102 162.153 90.5956 155.427 90.7766 148.5C90.7435 145.502 91.161 142.516 92.0149 139.643C94.8454 145.015 105.601 149.011 118.416 149.011V148.989Z" fill="#FF5D01"/>
<defs>
<filter id="filter0_d_243_57" x="0" y="0" width="234" height="234" filterUnits="userSpaceOnUse" color-interpolation-filters="sRGB">
<feFlood flood-opacity="0" result="BackgroundImageFix"/>
<feColorMatrix in="SourceAlpha" type="matrix" values="0 0 0 0 0 0 0 0 0 0 0 0 0 0 0 0 0 0 127 0" result="hardAlpha"/>
<feOffset dy="4"/>
<feGaussianBlur stdDeviation="2"/>
<feComposite in2="hardAlpha" operator="out"/>
<feColorMatrix type="matrix" values="0 0 0 0 0 0 0 0 0 0 0 0 0 0 0 0 0 0 0.25 0"/>
<feBlend mode="normal" in2="BackgroundImageFix" result="effect1_dropShadow_243_57"/>
<feBlend mode="normal" in="SourceGraphic" in2="effect1_dropShadow_243_57" result="shape"/>
</filter>
</defs>
</svg>
