<svg width="234" height="234" viewBox="0 0 234 234" fill="none" xmlns="http://www.w3.org/2000/svg">
<g filter="url(#filter0_d_243_51)">
<rect x="4" width="226" height="226" rx="13" fill="white"/>
</g>
<path d="M116.412 20.512L121.403 29.885C122.525 31.6143 123.74 33.1459 125.171 34.5722C129.349 38.7503 133.317 43.1261 136.882 47.8133C145.336 58.9156 151.04 71.2451 155.112 84.5788C157.555 92.7246 158.88 101.081 158.98 109.53C159.388 134.79 150.729 156.48 133.271 174.505C130.419 177.356 127.369 179.997 124.097 182.347C122.367 182.347 121.548 181.02 120.836 179.8C119.511 177.561 118.697 175.007 118.289 172.466C117.675 169.408 117.272 166.354 117.471 163.198V161.773C117.331 161.469 115.806 21.2315 116.414 20.5134V20.5148L116.412 20.512Z" fill="#599636"/>
<path d="M116.412 20.2007C116.208 19.7925 116.004 20.1011 115.798 20.3003C115.898 22.3451 115.184 24.1684 114.069 25.9103C112.841 27.6396 111.217 28.9678 109.586 30.3927C100.53 38.2342 93.4012 47.7068 87.6916 58.2999C80.0956 72.5579 76.1798 87.8369 75.0704 103.924C74.5627 109.726 76.9063 130.201 78.7352 136.109C83.7253 151.791 92.6888 164.933 104.299 176.338C107.15 179.084 110.201 181.631 113.356 184.08C114.273 184.08 114.373 183.262 114.582 182.654C114.982 181.352 115.292 180.023 115.499 178.679L117.544 163.406L116.411 20.2007H116.412Z" fill="#6CAC48"/>
<path d="M121.402 188.55C121.607 186.212 122.729 184.272 123.951 182.338C122.724 181.83 121.812 180.819 121.099 179.692C120.485 178.675 119.977 177.453 119.581 176.331C118.154 172.054 117.851 167.565 117.442 163.195V160.549C116.934 160.957 116.827 164.417 116.827 164.932C116.543 169.539 115.91 174.16 114.993 178.683C114.689 180.518 114.485 182.347 113.356 183.976C113.356 184.181 113.356 184.384 113.456 184.69C115.29 190.09 115.794 195.588 116.102 201.192V203.237C116.102 205.679 116.003 205.164 118.031 205.983C118.848 206.287 119.76 206.391 120.578 207C121.192 207 121.292 206.492 121.292 206.083L120.987 202.722V193.349C120.888 191.713 121.192 190.088 121.395 188.558L121.402 188.55Z" fill="#C2BFBF"/>
<defs>
<filter id="filter0_d_243_51" x="0" y="0" width="234" height="234" filterUnits="userSpaceOnUse" color-interpolation-filters="sRGB">
<feFlood flood-opacity="0" result="BackgroundImageFix"/>
<feColorMatrix in="SourceAlpha" type="matrix" values="0 0 0 0 0 0 0 0 0 0 0 0 0 0 0 0 0 0 127 0" result="hardAlpha"/>
<feOffset dy="4"/>
<feGaussianBlur stdDeviation="2"/>
<feComposite in2="hardAlpha" operator="out"/>
<feColorMatrix type="matrix" values="0 0 0 0 0 0 0 0 0 0 0 0 0 0 0 0 0 0 0.25 0"/>
<feBlend mode="normal" in2="BackgroundImageFix" result="effect1_dropShadow_243_51"/>
<feBlend mode="normal" in="SourceGraphic" in2="effect1_dropShadow_243_51" result="shape"/>
</filter>
</defs>
</svg>
