<svg width="234" height="234" viewBox="0 0 234 234" fill="none" xmlns="http://www.w3.org/2000/svg">
<g filter="url(#filter0_d_243_55)">
<rect x="4" width="226" height="226" rx="13" fill="white"/>
</g>
<path d="M116.99 192C114.879 192 112.774 191.446 110.925 190.374L91.6122 178.939C88.731 177.325 90.1386 176.753 91.0859 176.417C94.934 175.08 95.7102 174.771 99.8215 172.441C100.249 172.197 100.815 172.289 101.256 172.553L116.096 181.368C116.371 181.514 116.678 181.591 116.99 181.591C117.302 181.591 117.609 181.514 117.885 181.368L175.739 147.951C176.008 147.788 176.231 147.558 176.385 147.284C176.54 147.009 176.621 146.7 176.62 146.384V79.5644C176.619 79.2436 176.537 78.9285 176.378 78.6493C176.221 78.3703 175.993 78.1367 175.718 77.9712L117.891 44.581C117.619 44.4287 117.312 44.3489 117 44.3489C116.688 44.3489 116.381 44.4287 116.109 44.581L58.2945 77.9778C58.0188 78.1416 57.79 78.3735 57.6299 78.6514C57.4698 78.9292 57.3837 79.2436 57.3801 79.5644V146.384C57.3814 146.7 57.4668 147.01 57.6275 147.282C57.7882 147.554 58.0184 147.778 58.2945 147.931L74.1409 157.095C82.7383 161.401 88.0074 156.331 88.0074 151.236V85.2654C88.0074 84.3306 88.7572 83.5999 89.6914 83.5999H97.0259C97.9402 83.5999 98.7032 84.3372 98.7032 85.2654V151.236C98.7032 162.724 92.4541 169.308 81.574 169.308C78.2325 169.308 75.5946 169.308 68.247 165.68L53.0649 156.944C51.2195 155.868 49.6883 154.327 48.6241 152.474C47.5598 150.621 46.9998 148.522 47 146.384V79.5644C47 75.226 49.322 71.1707 53.0649 69.0114L110.919 35.5553C112.782 34.5349 114.872 34 116.997 34C119.121 34 121.211 34.5349 123.075 35.5553L180.922 69.0114C184.672 71.1773 187 75.226 187 79.5644V146.384C186.996 148.523 186.433 150.622 185.367 152.474C184.3 154.327 182.768 155.868 180.922 156.944L123.075 190.374C121.233 191.446 119.135 192 116.99 192ZM163.701 126.121C163.701 113.613 155.255 110.282 137.474 107.932C119.51 105.555 117.681 104.324 117.681 100.117C117.681 96.6413 119.227 92.0001 132.534 92.0001C144.421 92.0001 148.801 94.561 150.603 102.579C150.686 102.95 150.892 103.281 151.187 103.519C151.482 103.758 151.85 103.888 152.228 103.889H159.734C159.964 103.887 160.189 103.839 160.4 103.747C160.61 103.656 160.8 103.523 160.958 103.356C161.116 103.184 161.237 102.98 161.314 102.757C161.389 102.535 161.419 102.3 161.398 102.066C160.234 88.2542 151.064 81.8158 132.534 81.8158C116.036 81.8158 106.196 88.7809 106.196 100.466C106.196 113.139 115.984 116.641 131.817 118.208C150.762 120.065 152.228 122.836 152.228 126.562C152.228 133.033 147.038 135.792 134.849 135.792C119.542 135.792 116.174 131.947 115.043 124.323C114.98 123.928 114.778 123.567 114.473 123.308C114.167 123.049 113.779 122.906 113.379 122.909H105.9C105.68 122.907 105.463 122.949 105.26 123.031C105.057 123.114 104.872 123.237 104.717 123.392C104.561 123.547 104.438 123.732 104.354 123.934C104.271 124.137 104.228 124.354 104.229 124.574C104.229 134.33 109.531 145.956 134.849 145.956C153.189 145.963 163.701 138.741 163.701 126.121Z" fill="#50B42D"/>
<defs>
<filter id="filter0_d_243_55" x="0" y="0" width="234" height="234" filterUnits="userSpaceOnUse" color-interpolation-filters="sRGB">
<feFlood flood-opacity="0" result="BackgroundImageFix"/>
<feColorMatrix in="SourceAlpha" type="matrix" values="0 0 0 0 0 0 0 0 0 0 0 0 0 0 0 0 0 0 127 0" result="hardAlpha"/>
<feOffset dy="4"/>
<feGaussianBlur stdDeviation="2"/>
<feComposite in2="hardAlpha" operator="out"/>
<feColorMatrix type="matrix" values="0 0 0 0 0 0 0 0 0 0 0 0 0 0 0 0 0 0 0.25 0"/>
<feBlend mode="normal" in2="BackgroundImageFix" result="effect1_dropShadow_243_55"/>
<feBlend mode="normal" in="SourceGraphic" in2="effect1_dropShadow_243_55" result="shape"/>
</filter>
</defs>
</svg>
