<svg width="234" height="234" viewBox="0 0 234 234" fill="none" xmlns="http://www.w3.org/2000/svg">
<g filter="url(#filter0_d_243_49)">
<rect x="4" width="226" height="226" rx="13" fill="white"/>
</g>
<path d="M117.16 97.2977C115.143 97.2977 113.146 97.695 111.283 98.4668C109.419 99.2386 107.726 100.37 106.3 101.796C104.874 103.222 103.743 104.915 102.971 106.779C102.199 108.642 101.802 110.639 101.802 112.656C101.802 114.673 102.199 116.67 102.971 118.533C103.743 120.396 104.874 122.089 106.3 123.516C107.726 124.942 109.419 126.073 111.283 126.845C113.146 127.617 115.143 128.014 117.16 128.014C119.177 128.014 121.174 127.617 123.037 126.845C124.901 126.073 126.594 124.942 128.02 123.516C129.446 122.089 130.577 120.396 131.349 118.533C132.121 116.67 132.518 114.673 132.518 112.656C132.518 110.639 132.121 108.642 131.349 106.779C130.577 104.915 129.446 103.222 128.02 101.796C126.594 100.37 124.901 99.2386 123.037 98.4668C121.174 97.695 119.177 97.2977 117.16 97.2977ZM74.1374 143.207L70.7485 142.345C45.4892 135.962 31 125.127 31 112.627C31 100.127 45.4892 89.292 70.7485 82.909L74.1374 82.0546L75.0924 85.4148C77.6512 94.2298 80.9242 102.822 84.8787 111.105L85.6039 112.634L84.8787 114.163C80.9176 122.444 77.6444 131.036 75.0924 139.854L74.1374 143.207ZM69.1761 90.7567C49.9767 96.1489 38.1944 104.399 38.1944 112.627C38.1944 120.848 49.9767 129.098 69.1761 134.497C71.5241 127.03 74.3591 119.724 77.6628 112.627C74.3553 105.532 71.5202 98.2258 69.1761 90.7567ZM160.183 143.207L159.228 139.839C156.671 131.025 153.396 122.435 149.434 114.156L148.709 112.627L149.434 111.098C153.394 102.816 156.67 94.2239 159.228 85.4076L160.183 82.0474L163.579 82.9018C188.831 89.2848 203.32 100.119 203.32 112.627C203.32 125.135 188.831 135.962 163.579 142.345L160.183 143.207ZM156.657 112.627C160.104 120.087 162.954 127.418 165.144 134.497C184.35 129.098 196.126 120.848 196.126 112.627C196.126 104.399 184.343 96.1561 165.144 90.7567C162.799 98.2255 159.964 105.531 156.657 112.627ZM69.1258 90.7208L68.1709 87.3678C61.0698 62.3383 63.2238 44.4026 74.08 38.1417C84.7279 31.9956 101.824 39.2546 119.738 57.6426L122.179 60.1484L119.738 62.6542C113.372 69.2713 107.556 76.3959 102.348 83.9573L101.378 85.343L99.6911 85.4866C90.5287 86.2089 81.4401 87.6736 72.5148 89.8664L69.1258 90.7208ZM82.7391 43.1174C80.8148 43.1174 79.1132 43.5339 77.6772 44.3596C70.5403 48.4737 69.2766 62.7763 74.1949 82.0761C81.8462 80.374 89.6002 79.1723 97.4078 78.4789C101.913 72.0735 106.834 65.9717 112.141 60.213C100.94 49.3066 90.3355 43.1174 82.7391 43.1174ZM151.588 189.317C151.581 189.317 151.581 189.317 151.588 189.317C141.357 189.317 128.217 181.612 114.582 167.611L112.141 165.106L114.582 162.6C120.946 155.981 126.76 148.854 131.965 141.29L132.934 139.904L134.615 139.76C143.782 139.042 152.875 137.58 161.805 135.388L165.194 134.533L166.156 137.893C173.243 162.909 171.096 180.851 160.24 187.105C157.603 188.596 154.617 189.359 151.588 189.317ZM122.179 165.041C133.38 175.947 143.984 182.137 151.581 182.137C153.498 182.137 155.214 181.72 156.643 180.894C163.78 176.78 165.051 162.471 160.125 143.171C152.472 144.875 144.715 146.077 136.905 146.768C132.406 153.178 127.486 159.282 122.179 165.041ZM165.194 90.7208L161.805 89.8664C152.876 87.6673 143.782 86.2025 134.615 85.4866L132.934 85.343L131.965 83.9573C126.762 76.3935 120.949 69.2687 114.582 62.6542L112.141 60.1484L114.582 57.6426C132.489 39.2618 149.578 32.0028 160.24 38.1417C171.096 44.4026 173.25 62.3383 166.156 87.3606L165.194 90.7208ZM136.905 78.4789C145.105 79.2256 152.895 80.4391 160.125 82.0761C165.051 62.7763 163.78 48.4737 156.643 44.3596C149.549 40.2598 136.216 46.5423 122.179 60.213C127.483 65.9719 132.402 72.0738 136.905 78.4789ZM82.7391 189.317C79.7077 189.361 76.7191 188.597 74.08 187.105C63.2238 180.851 61.0698 162.916 68.1709 137.893L69.1186 134.533L72.5076 135.388C80.8005 137.477 89.9478 138.949 99.6839 139.76L101.371 139.904L102.333 141.29C107.543 148.853 113.359 155.979 119.723 162.6L122.164 165.106L119.723 167.611C106.096 181.612 92.9562 189.317 82.7391 189.317ZM74.1949 143.171C69.2694 162.471 70.5403 176.78 77.6772 180.894C84.7638 184.937 98.0899 178.705 112.141 165.041C106.837 159.278 101.915 153.174 97.4078 146.768C89.5999 146.077 81.8456 144.876 74.1949 143.171ZM117.16 147.68C111.251 147.68 105.177 147.421 99.0951 146.919L97.4078 146.775L96.4385 145.389C92.9987 140.447 89.7649 135.364 86.7455 130.153C83.7351 124.939 80.9421 119.602 78.3736 114.156L77.6628 112.627L78.3736 111.098C80.9417 105.652 83.7347 100.315 86.7455 95.1006C89.718 89.9598 92.9849 84.8332 96.4385 79.8647L97.4078 78.4789L99.0951 78.3353C111.119 77.3158 123.208 77.3158 135.232 78.3353L136.912 78.4789L137.874 79.8647C144.761 89.752 150.806 100.2 155.946 111.098L156.672 112.627L155.946 114.156C150.819 125.061 144.773 135.509 137.874 145.389L136.912 146.775L135.232 146.919C129.151 147.421 123.069 147.68 117.16 147.68ZM101.385 139.897C112.012 140.694 122.308 140.694 132.942 139.897C138.878 131.218 144.149 122.102 148.709 112.627C144.157 103.146 138.884 94.0297 132.934 85.3574C122.433 84.5604 111.887 84.5604 101.385 85.3574C95.4339 94.028 90.1601 103.145 85.6111 112.627C90.1758 122.101 95.449 131.217 101.385 139.897Z" fill="#38A0FF"/>
<defs>
<filter id="filter0_d_243_49" x="0" y="0" width="234" height="234" filterUnits="userSpaceOnUse" color-interpolation-filters="sRGB">
<feFlood flood-opacity="0" result="BackgroundImageFix"/>
<feColorMatrix in="SourceAlpha" type="matrix" values="0 0 0 0 0 0 0 0 0 0 0 0 0 0 0 0 0 0 127 0" result="hardAlpha"/>
<feOffset dy="4"/>
<feGaussianBlur stdDeviation="2"/>
<feComposite in2="hardAlpha" operator="out"/>
<feColorMatrix type="matrix" values="0 0 0 0 0 0 0 0 0 0 0 0 0 0 0 0 0 0 0.25 0"/>
<feBlend mode="normal" in2="BackgroundImageFix" result="effect1_dropShadow_243_49"/>
<feBlend mode="normal" in="SourceGraphic" in2="effect1_dropShadow_243_49" result="shape"/>
</filter>
</defs>
</svg>
